<?xml version="1.0" encoding="utf-8"?>
<!-- Designed by Vexels.com - 2020 All Rights Reserved - https://vexels.com/terms-and-conditions/  -->
<svg version="1.1" id="Capa_1" xmlns="http://www.w3.org/2000/svg" xmlns:xlink="http://www.w3.org/1999/xlink" x="0px" y="0px"
	 viewBox="0 0 1200 1200" enable-background="new 0 0 1200 1200" xml:space="preserve">
<g>
	<path fill="#2D1715" d="M537.58,308.028c9.841,0.496,20.482-4.088,25.321-12.947c2.014-3.688,0.629-7.477-2.582-9.847
		c-0.458-0.338-1.163-0.607-1.719-0.725c-2.351-0.501-5.356-0.163-7.003,1.851c-4.868,5.954-13.937,7.311-20.652,4.03
		c-6.126-2.993-12.581-7.738-19.112-2.713c-1.948,1.498-2.252,4.22,0,5.665c4.673,2.998,8.851,5.615,13.21,9.152
		C528.786,305.531,532.629,307.779,537.58,308.028z"/>
	<path fill="#2D1715" d="M609.804,374.025c-4.241,2.906-7.39,5.848-12.812,6.096c-4.213,0.193-7.477-1.467-11.018-3.483
		c-4.11-2.339-8.681,1.508-7.701,5.92c3.84,17.297,34.071,13.594,40.588,0.523C621.575,377.638,615.689,369.993,609.804,374.025z"/>
	<path fill="#2D1715" d="M658.078,287.99c-4.921,2.532-15.391,6.369-19.734,0.425c-1.419-1.941-3.62-3.889-6.269-3.596
		c-2.215,0.245-3.413,0.793-5.134,2.126c-2.554,1.98-2.541,6.226-1.135,8.798c4.837,8.854,14.894,12.528,24.568,11.15
		c4.861-0.692,8.248-2.843,11.939-5.911c4.012-3.334,8.073-5.342,12.362-8.123c1.67-1.083,2.32-3.687,0.664-5.153
		C670.053,283.028,663.754,285.068,658.078,287.99z"/>
	<path fill="#2D1715" d="M574.694,309.773c0.137,7.134-3.328,15.048,0.49,21.75c3.192,5.604,9.884,8.339,15.954,9.258
		c17.2,2.603,26.12-7.446,26.516-23.677c0.358-14.676-1.505-31.198,2.445-45.437c2.151-7.754,6.36-13.039,14.212-15.607
		c13.469-4.404,24.381-0.784,36.39,5.416c1.901,0.981,4.009-1.461,2.357-3.055c-11.745-11.334-27.186-19.086-43.792-15.825
		c-13.162,2.585-22.33,12.936-25.459,25.713c-3.198,13.063-2.09,27.185-1.305,40.472c0.519,8.795,5.478,21.25-7.091,21.742
		c-5.435,0.213-12.065-1.675-13.598-7.866c-0.935-3.778,0.514-8.895,0.111-12.885C581.465,305.244,574.603,305.029,574.694,309.773z
		"/>
	<path fill="#2D1715" d="M517.218,259.492c11.1-3.902,25.151-6.669,36.914-4.567c11.776,2.104,17.045,8.529,19.992,19.924
		c1,3.868,7.348,3.178,7.1-0.961c-0.799-13.357-5.766-27.537-19.125-33.241c-7.88-3.364-17.841-3.864-26.014-1.395
		c-9.44,2.853-14.844,9.465-20.759,16.989C514.259,257.597,515.175,260.21,517.218,259.492z"/>
	<path fill="#2D1715" d="M623.352,354.3c-1.098,0.935-2.195,1.87-3.292,2.805c-3.641-0.946-7.337-2.073-11.059-1.972
		c-2.797,0.076-5.855,0.851-8.354,2.095c-0.277,0.138-0.5,0.26-0.716,0.379c-9.427-5.493-23.547,3.499-30.883-3.308
		c-6.043-5.607-15.131,3.439-9.067,9.067c4.662,4.326,8.911,7.328,15.592,6.765c5.193-0.437,9.77-2.02,15.085-1.261
		c2.817,0.402,5.945,1.853,8.795,1.902c3.201,0.055,5.124-1.919,8.162-2.502c4.429-0.849,8.139,1.774,12.411,1.986
		c5.463,0.272,8.421-3.509,12.39-6.891C638.708,358.007,629.602,348.974,623.352,354.3z"/>
	<path fill="#2D1715" d="M520.394,602.419c-0.011-0.069-0.005-0.132-0.015-0.201c-0.084-0.473-0.158-0.903-0.218-1.263
		C520.221,601.328,520.294,601.784,520.394,602.419z"/>
	<path fill="#2D1715" d="M520.161,600.956C519.93,599.518,519.98,599.88,520.161,600.956L520.161,600.956z"/>
	<path fill="#2D1715" d="M555.927,772.378c33.267-14.206,61.612-36.389,85.473-63.451c24.105-27.339,39.071-62.461,48.278-97.516
		c1.579-6.012-6.151-8.584-9.505-4.007c-10.437,14.24-15.028,32.862-22.144,48.866c-7.132,16.04-16.438,30.515-28.049,43.679
		c-22.765,25.809-48.772,47.416-79.176,63.666C544.895,766.771,550.093,774.869,555.927,772.378z"/>
	<path fill="#2D1715" d="M621.518,756.324c-4.813,2.922-1.63,11.841,4.007,9.505c24.762-10.259,44.175-33.998,57.853-56.388
		c15.491-25.358,26.15-54.344,28.886-84.028c0.57-6.187-7.902-6.06-9.888-1.338c-10.436,24.823-17.125,50.955-30.477,74.541
		C659.592,720.355,643.214,743.149,621.518,756.324z"/>
	<path fill="#2D1715" d="M497.72,1116.502c-5.18,4.591,1.659,13.64,7.466,9.676c10.768-7.351,22.498-12.815,32.377-21.512
		c9.236-8.131,16.876-18.454,22.494-29.368c9.208-17.889,19.86-49.526,3.959-66.641c-2.431-2.617-7.441-1.413-8.204,2.166
		c-2.022,9.487-1.257,19.306-3.111,28.865c-2.056,10.601-5.928,20.966-11.162,30.404
		C531.286,1088.582,513.354,1102.645,497.72,1116.502z"/>
	<path fill="#2D1715" d="M327.292,1046.077c28.582,17.188,65.975,11.938,95.828,0.592c13.802-5.245,27.129-11.78,39.035-20.57
		c9.941-7.339,21.117-16.341,22.597-29.358c0.436-3.834-4.826-6.706-7.888-4.527c-9.094,6.472-15.833,15.534-25.12,21.938
		c-10.564,7.284-22.163,13.391-34.102,18.084c-27.793,10.927-57.932,14.606-86.6,4.946
		C325.715,1035.386,322.659,1043.291,327.292,1046.077z"/>
	<path fill="#2D1715" d="M907.589,1039.939c3.16-4.701-2.056-10.679-7.146-9.295c-8.513,2.315-16.705,8.302-24.603,12.299
		c-9.148,4.63-18.507,8.772-28.176,12.194c-19.19,6.792-39.395,11.516-59.671,13.42c-40.328,3.786-81.191-2.658-116.969-22.193
		c-5.244-2.863-11.605,4.444-6.656,8.627c33.92,28.671,80.399,36.153,123.626,32.211c22.574-2.058,44.77-6.885,65.965-14.965
		C871.502,1065.55,896.676,1056.177,907.589,1039.939z"/>
	<path fill="#2D1715" d="M922.712,1035.791c-15.168,18.567-29.68,38.927-50.569,51.483c-10.485,6.302-21.61,10.481-33.558,12.973
		c-12.181,2.541-25.216,2.442-37.075,6.304c-3.97,1.293-4.002,6.814,0,8.098c24.668,7.917,55.221-0.23,76.655-13.327
		c23.333-14.257,38.339-36.571,53.502-58.623C935.292,1037.428,926.824,1030.758,922.712,1035.791z"/>
	<path fill="#2D1715" d="M742.536,1037.176c8.961-10.715,19.166-20.021,30.782-27.79c11.192-7.486,23.881-12.031,35.242-19.042
		c4.461-2.753,3.019-11.05-2.857-10.547c-28.889,2.476-57.851,26.277-73.236,49.609
		C728.515,1035.401,737.831,1042.802,742.536,1037.176z"/>
	<path fill="#2D1715" d="M760.737,869.318c-24.56-6.07-53.053,4.226-70.232,22.482c-3.421,3.635-1.26,11.145,4.415,10.659
		c8.528-0.729,15.478-8.467,22.763-12.35c13.548-7.22,28.827-7.145,43.054-12.13C764.703,876.59,765.3,870.446,760.737,869.318z"/>
	<path fill="#2D1715" d="M603.727,516.185c12.475-3.399,25.085-15.735,29.553-27.631c1.404-3.737-3.167-6.07-6.107-4.695
		c-9.213,4.31-15.088,13.461-24.078,18.047c-9.962,5.083-19.42-6.566-26.886-12.289c-4.341-3.328-8.912,3.558-5.594,7.25
		C579.253,506.478,588.931,520.217,603.727,516.185z"/>
	<path fill="#2D1715" d="M905.497,936.681c-2.421-1.781-4.859-3.543-7.292-5.311c6.836-11.529,7.253-27.568,5.034-40.026
		c-3.556-19.967-13.322-38.378-21.966-56.507c-10.052-21.081-17.244-40.887-17.273-64.506c-0.027-21.748,1.149-42.58-3.644-64.003
		c-4.766-21.301-12.58-41.631-16.634-63.162c-1.948-10.349-3.843-20.846-4.021-31.396c-0.197-11.639,1.402-23.218,1.54-34.847
		c0.205-17.239-3.254-35.843-11.053-51.323c-8.474-16.819-24.084-26.594-38.16-38.275c-8.427-6.994-17.958-11.645-27.504-16.895
		c-5.539-3.046-10.99-6.243-16.459-9.408c30.98-24.726,55.07-57.166,62.245-97.028c6.76-37.559,9.279-76.183,5.416-114.207
		c-7.686-75.666-43.985-149.413-117.995-178.993c-72.529-28.988-160.715-30.888-226.501,15.003
		c-60.634,42.297-94.206,114.513-98.32,187.299c-2.545,45.029,4.877,89.818,29.3,128.284c16.789,26.442,38.174,50.398,65.089,65.212
		c-31.211,4.404-68.866,7.082-83.077,40.213c-9.146,21.324-8.91,45.63-12.685,68.174c-6.027,35.99-19.849,72.493-35.316,105.383
		c-15.481,32.918-25.813,67.331-22.647,104.093c1.246,14.471,4.571,28.725,10.124,42.155c3.995,9.662,11.754,27.11,23.101,30.239
		c6.541,1.804,17.071-2.759,23.096-4.5c16.594-4.795,32.806-11.077,48.349-18.607c0.452-0.219,0.9-0.449,1.352-0.672
		c-0.069,3.563,0.023,6.878,0.059,9.335c0.053,3.637,0.555,7.011,1.42,10.18c-6.428,3.146-12.979,6.776-18.432,10.769
		c-3.354,2.456-4.786,5.475-4.944,8.863c-19.503-0.898-39.389,2.789-58.042,8.018c-18.285,5.126-37.223,12.158-51.98,24.424
		c-20.618,17.139-40.708,43.226-48.182,69.437c-11.589,40.645,1.603,83.621,28.127,115.962
		c22.731,27.717,62.362,35.528,96.314,37.513c6.718,0.393,13.488,0.59,20.271,0.63c0.467,0.73,1.155,1.348,2.116,1.755
		c25.301,10.709,53.221,15.914,80.541,18.565c25.895,2.513,52.496,2.412,77.628-5.008c22.594,3.873,45.988,6.248,68.737,3.89
		c13.364-1.386,27.82-4.372,37.888-13.979c3.84-3.665,6.534-8.001,8.39-12.744c10.652-3.464,26.51,0.535,36.086,2.292
		c17.704,3.247,35.314,6.924,53.064,9.934c30.632,5.194,61.541,10.635,92.717,10.408c28.906-0.211,59.128-5.523,82.577-23.496
		c23.959-18.365,36.137-45.963,39.944-76.345C971.877,979.776,920.347,947.603,905.497,936.681z M814.027,864.199
		c-1.646-2.59-3.632-5.654-5.94-8.525c9.977-3.495,19.205-8.531,27.702-14.753c2.604,9.118,5.049,18.263,8.733,26.489
		c9.186,20.508,27.489,35.878,46.723,46.897c-0.045,0.723-0.107,1.438-0.203,2.135c-0.347,2.541-1.324,5.125-2.475,7.686
		c-1.923-1.524-3.815-3.086-5.655-4.713c-7.428-6.567-13.502-14.326-21.382-20.415c-12.444-9.615-27.315-14.944-42.411-18.825
		C819.643,874.733,816.962,868.819,814.027,864.199z M783.657,845.137c-20.484,0.688-41.002-0.29-61.395-2.242
		c-22.421-2.146-44.715-5.33-66.98-8.701c-12.705-1.924-28.53-7.752-40.821-3.214c-10.485,3.871-21.062,7.624-31.341,12.022
		c-13.308,5.694-24.335,16.025-38.901,18.338c-14.726,2.338-29.207-1.441-43.284-5.63c-11.23-3.341-22.682-7.561-32.136-14.504
		c6.456-0.567,13.294,0.749,18.825,2.912c9.962,3.895,19.926,6.331,30.53,7.833c17.42,2.467,30.55,0.514,44.437-10.679
		c12.431-10.019,11.176-23.14-4.075-28.92c-6.407-2.429-13.151-3.339-19.937-3.753c-5.67-0.346-13.507-0.911-16.959-6.191
		c-0.693-1.06-0.937-1.975-1.071-2.908c8.035,1.872,16.188,3.443,24.411,3.42c10.861-0.03,21.168-6.749,31.804-4.698
		c9.867,1.903,18.665,7.099,28.693,8.646c7.025,1.084,14.155,2.1,21.231,2.746c44.85,4.094,81.006-26.153,120.67-41.079
		c12.268,0.527,25.035,1.691,35.472,5.824c13.965,5.53,28.863,20.173,37.905,31.872c5.153,6.667,8.569,14.437,11.337,22.579
		C817.386,838.359,801.569,844.535,783.657,845.137z M520.229,793.85C520.529,793.183,520.883,793.091,520.229,793.85
		L520.229,793.85z M753.122,624.192c7.941-28.345,13.898-57.815,13.95-87.311c0.026-14.843-1.252-34.191-7.298-50.525
		c1.693,1.005,3.394,1.983,5.115,2.902c17.069,9.112,35.506,15.79,46.663,32.691c9.491,14.378,13.358,34.126,13.596,51.115
		c0.283,20.174-2.636,39.481,0.258,59.642c2.79,19.435,7.003,38.438,13.262,57.049c6.984,20.768,10.958,41.67,10.879,63.624
		c-0.069,19.042-0.585,37.664,5.448,56.002c7.048,21.422,19.174,40.608,27.322,61.554c3.284,8.442,6.227,17.386,7.666,26.401
		c-6.072-5.372-11.959-10.926-17.346-17.076c-9.258-10.567-13.55-21.648-17.377-34.909c-5.755-19.942-12.753-41.582-27.362-56.812
		c-11.023-11.491-25.651-25.909-41.295-30.709c-7.833-2.403-16.322-3.768-24.933-4.624c9.543-3.267,19.376-5.584,29.494-6.498
		c26.282-2.373,33.872-25.228,43.667-46.257c3.462-7.434-7.587-13.953-11.072-6.472c-4.607,9.891-8.31,20.608-14.742,29.52
		c-8.885,12.31-22.313,9.662-35.523,12.739c-8.035,1.871-16.002,4.527-23.781,7.672c2.559-4.482,5.414-8.752,9.248-12.358
		c9.785-9.2,20.754-16.972,30.456-26.347c17.65-17.056,35.701-38.322,34.754-64.406c-0.24-6.602-10.841-8.782-12.101-1.638
		c-4.654,26.387-19.623,43.263-38.884,60.868c-0.344,0.315-0.707,0.609-1.056,0.918c-0.048-9.597-0.353-19.191-0.026-28.794
		c0.52-15.257,3.987-29.331,9.041-43.65c7.367-20.871,20.054-49.891,6.605-70.837c-1.716-2.672-7.057-2.805-7.598,0.993
		c-1.783,12.505-1.572,24.899-4.841,37.237c-3.3,12.459-8.059,24.5-11.639,36.881c-7.458,25.796-5.071,51.135-3.1,77.322
		c-3.732,2.78-7.452,5.571-10.955,8.591c-0.195-7.99-0.429-15.979-0.504-23.971c-0.153-16.372,0.701-32.414,2.916-48.639
		C753.064,638.511,753.295,631.345,753.122,624.192z M427.773,398.439c-22.039-31.068-31.71-64.422-33.039-102.238
		c-2.328-66.243,19.247-134.973,67.321-182.008c24.773-24.237,56.233-39.904,90.197-46.392c36.861-7.042,75.9-1.299,111.759,8.367
		c35.458,9.558,66.724,25.832,90.676,54.314c22.584,26.855,35.109,60.719,41.273,94.912c7.052,39.127,5.88,79.968,0.043,119.178
		c-3.23,21.698-8.302,41.89-19.965,60.737c-11.225,18.139-42.833,47.401-43.321,47.145c-14.775-7.761-30.918-9.428-46.839-13.045
		c-8.457-7.173-17.515-13.362-25.55-21.107c4.616-3.327,8.769-7.176,12.293-11.509c4.292,10.325,13.127,18.207,25.329,16.774
		c9.667-1.135,21.574-5.782,26.6-14.511c7.13-12.384,2.353-27.195-1.847-39.645c-2.723-8.073-4.74-15.694-5.176-24.262
		c-0.523-10.295,1.562-16.759,6.543-25.77c5.659-10.238,10.611-23.801,6.767-35.551c-1.466-4.482-5.41-8.235-10.384-10.867
		c7.595-32.364,6.031-71.508-9.733-100.684c-12.019-22.244-33.196-36.354-57.264-42.503c1.39-2.825,2.142-6.146,2.347-9.208
		c0.538-8.04-2.101-16.651-6.318-23.454c-4.705-7.59-11.725-12.541-20.111-15.475c-5.445-1.905-11.148-2.694-16.817-3.604
		c-5.142-0.825-35.987-0.154-44.46,1.914c-9.118,2.226-17.655,6.444-23.443,13.993c-4.981,6.496-8.171,14.68-8.74,22.864
		c-0.272,3.92,0.043,7.87,1.319,11.604c0.435,1.273,1.102,2.445,1.815,3.588c-20.165,5.979-38.884,16.499-51.907,33.513
		c-11.054,14.441-16.345,31.662-18.388,49.569c-1.259,11.031-1.184,22.148-0.469,33.215c0.492,7.602,0.475,16.432,2.595,24.19
		c-5.072,2.562-8.774,6.822-10.541,13.351c-1.49,5.506-0.805,10.535-0.5,16.101c0.398,7.255-0.386,12.575,2.265,19.54
		c2.039,5.357,4.699,10.475,6.155,16.046c2.228,8.526,1.352,17.168,0.628,25.822c-1.138,13.59-5.374,29.211,0.634,42.262
		c4.139,8.992,13.518,16.193,23.289,17.911c10.411,1.83,18.312-3.321,23.502-12.034c1.693-2.842,3.327-5.529,4.677-8.217
		c3.795,4.771,8.2,9.154,13.372,13.026c2.775,2.077,5.688,3.978,8.7,5.728c-5.019,15.469-6.971,30.547-25.167,37.095
		c-1.078,0.388-6-0.559-7.897-0.917C474.123,451.415,448.363,427.465,427.773,398.439z M478.231,307.121
		c-3.932-6.447-10.591-16.855-0.574-21.957c2.901-1.478,10.691-2.018,15.666-1.035c-0.83,22.617,1.073,45.304,6.022,67.482
		c2.839,12.721,6.452,25.23,12.104,36.528c-0.91,3.919-1.448,7.09-3.711,11.29c-4.328,8.036-8.183,14.898-17.775,8.169
		c-16.388-11.496-2.896-36.977-1.025-52.319C490.919,339.038,486.814,321.196,478.231,307.121z M596.867,134.585
		c64.662-2.401,82.402,18.377,96.36,37.454c21.325,29.147,16.332,63.538,14.628,97.047c-2.71-0.311-5.402-0.292-7.934,0.089
		c0.253-25.151-2.777-54.456-19.492-74.123c-17.271-20.321-49.668-30.031-70.785-10.95c-4.565,4.125-9.809,10.019-16.743,7.861
		c-6.323-1.967-10.956-9.477-16.331-13.179c-13.114-9.034-30.323-2.776-44.592,1.575c-43.137,13.154-37.198,82.82-37.825,90.177
		c-2.765-0.798-5.759-1.127-8.509-1.151c-0.27-4.39-1.113-8.779-1.583-13.272c-0.952-9.113-1.477-18.255-1.218-27.42
		c0.439-15.567,2.98-31.584,10.622-45.352C506.18,160.431,532.205,136.987,596.867,134.585z M556.398,104.881
		c4.096-6.041,10.731-8.423,17.606-9.985c6.525-1.482,36.653-1.742,42.931-0.532c7.529,1.451,15.13,3.736,19.728,10.243
		c3.248,4.596,4.921,17.81,4.921,17.81s-32.888-3.204-43.89-3.218c-11.415-0.015-45.545,3.222-45.545,3.222
		S553.408,109.29,556.398,104.881z M700.211,358.954c1.1,16.119,13.476,32.958,1.995,47.784
		c-10.675,13.784-16.25-7.445-19.341-19.545c0.277-0.994,0.532-1.999,0.754-3.022c7.268-33.611,13.97-66.343,15.813-100.506
		c3.712-0.836,7.44-0.989,11.504-0.291c10.793,1.853,8.03,13.049,4.389,20.865c-3.903,8.377-10.4,15.253-12.82,24.37
		C700.037,337.903,699.558,349.369,700.211,358.954z M507.573,237.704c4.741-13.414,14.024-34.528,27.413-42.815
		c12.684-7.85,27.18-10.112,38.615,0.412c7.193,6.619,13.404,11.592,23.562,11.319c10.534-0.283,16.23-6.567,23.784-13.103
		c12.061-10.437,29.646-4.047,41.173,4.477c18.436,13.633,23.23,43.005,23.142,64.293c-0.135,32.545-4.555,62.971-11.437,94.704
		c-4.25,19.597-5.16,37.289-22.736,49.484c-27.37,18.991-69.814,19.226-98.786,3.943c-22.916-12.088-32.052-32.989-38.317-57.204
		c-7.848-30.331-9.289-61.865-9.885-93.104C504.034,256.568,505.157,244.541,507.573,237.704z M351.945,838.129
		c-10.06-10.146-14.735-25.286-17.846-38.849c-4.233-18.457-4.105-38.227-0.67-56.802c3.941-21.311,12.51-40.537,21.318-60.174
		c8.537-19.033,15.912-38.587,22.013-58.535c4.916-16.073,10.225-32.928,12.034-49.683c1.335-12.367,2.637-24.713,4.749-36.981
		c2.763-16.049,5.995-32.015,20.591-41.587c7.734-5.072,16.27-6.621,25.189-8.313c11.307-2.146,22.6-4.417,33.957-6.287
		c7.295-1.202,53.274-10.338,57.896-13.244c7.353-4.622,13.427-11.212,16.73-19.28c2.821-6.891,3.359-14.333,4.394-21.662
		c30.882,13.758,69.949,12.491,99.211-2.993c2.891,6.033,12.776,15.537,12.776,15.537s-0.777,11.375-0.107,17.989
		c1.046,10.322,1.458,20.745,1.407,31.119c-0.099,19.883-1.783,40.047-4.844,59.689c-5.955,38.205-20.437,72.254-43.346,103.364
		c-10.939,14.856-23.161,28.742-35.853,42.115c-10.508,11.073-20.968,23.602-33.876,31.936
		c-9.961,6.431-20.766,11.481-31.588,16.306c3.604-7.426,6.641-15.18,9.044-23.249c8.478-1.388,16.265-4.734,22.824-13.276
		c15.248-19.859,15.179-45.523,21.257-68.677c3.657-13.931,3.072-31.108-14.252-30.541c-0.063-3.475-0.814-7.182-1.854-10.751
		c2.763-7.746,4.237-15.764,6.263-23.884c3.017-12.098,5.401-26.798-3.515-37.133c-5.395-6.253-16.614-8.63-21.462-0.459
		c-2.887,4.866-3.486,12.272-4.85,17.739c-0.945,3.787-1.989,7.554-2.544,11.367c-2.012,0.017-4.167,0.387-6.49,1.204
		c-0.955,0.336-1.838,0.748-2.687,1.198c0.122-0.573,0.253-1.146,0.361-1.717c1.275-6.726,1.793-12.567-2.607-18.349
		c-3.414-4.487-11.825-10.782-17.997-8.793c-8.366,2.696-10.917,22.402-12.896,29.23c-0.527,1.818-1.032,3.642-1.548,5.464
		c-2.194-8.839-6.892-15.915-16.159-18.085c-9.393-2.2-10.451,6.312-11.447,13.411c-1.659,11.832-2.766,23.745-3.899,35.637
		c-0.169,1.77,0.589,15.573-2.756,24.95c-5.604,15.714-16.929,30.645-21.048,40.833c-5.554,13.738-13.005,29.677-13.886,45.105
		c-6.756,3.327-13.675,6.321-20.76,8.857c-19.957,7.144-50.317,9.32-55.888,34.545c-1,4.528,4.78,8.719,8.274,4.816
		c10.075-11.256,19.128-15.823,33.807-19.114c10.206-2.288,19.987-4.827,29.709-8.709c10.951-4.373,21.607-9.38,31.802-15.319
		c7.959-4.636,17.266-10.042,23.188-17.492c3.3,1.744,7.063,3.035,11.362,3.739c5.232,0.857,7.595-6.973,2.232-8.098
		c-1.555-0.326-14.857-2.539-18.022-12.531c-5.406-17.069,1.543-60.377,1.685-60.739c0.553-1.412,0.616-6.382,0.729-7.59
		c0.814-8.714,1.6-17.432,2.474-26.141c0.454-4.53,0.926-9.059,1.453-13.581c0.188-1.619,1.389-5.787,1.718-8.772
		c0.909,0.534,1.792,1.096,2.207,1.717c2.917,4.362,2.466,12.153,2.613,17.204c0.272,9.389-0.341,18.806-1.247,28.147
		c-0.366,3.776,3.963,6.474,7.279,5.545c0.219-0.061,0.437-0.122,0.656-0.184c1.904-0.533,3.522-2.078,4.016-4.016
		c2.971-11.663,6.014-23.308,9.206-34.912c1.765-6.417,4.045-27.134,9.863-30.613c2.006-1.199,9.35-0.409,8.51,8.062
		c-1.595,16.094-13.417,47.091-11.891,54.818c-0.041,0.255-0.107,0.506-0.138,0.763c-0.34,2.84,3.615,5.019,5.879,3.373
		c3.574-2.599,4.523-6.931,5.803-10.99c2.139-6.781,5.121-13.552,7.746-20.204c1.431-3.627,2.82-7.33,6.636-8.851
		c2.797-1.116,7.801-2.796,15.585,7.633c7.784,10.429,7.767,22.029,7.784,23.464c-18.877,11.54-11.702-14.539-21.421-13.808
		c-4.565,0.344-6.994,3.823-6.398,8.179c0.266,1.502,0.617,3.353,0.871,4.204c0.799,2.681,1.76,5.474,3.3,7.832
		c1.687,2.585,3.843,4.444,6.279,5.661c-4.24,7.961-5.024,18.341-5.05,28.532c-13.436,6.665-33.129,24.681-20.302,37.474
		c2.77,2.762,9.055,1.931,9.669-2.553c1.63-11.901,7.355-20.227,19.524-23.508c2.977-0.803,5.127-3.687,5.14-6.751
		c0.028-6.687-0.757-13.776,0.705-20.361c1.347-6.066,8.946-15.485,16.313-12.357c0.198,0.084,0.784,1.115,0.514,3.665
		c-0.285,2.687-0.745,5.292-1.34,7.933c-1.082,4.792-2.412,9.463-2.993,14.352c-2.073,17.461-5.444,46.386-21.527,57.289
		c-2.497,1.693-15.91,3.493-22.737,4.603c-6.17,1.003-12.424,2.294-14.563,2.997c-4.654,1.532-4.223,9.633,1.227,9.068
		c3.101-0.321,6.19-0.469,9.247-0.56C480.041,782.495,417.043,824.538,351.945,838.129z M549.375,557.219
		c-0.332,7.097-1.747,14.067-3.099,21.052c-2.141-4.103-6.566-9.153-9.708-11.966c1.905-4.984,1.862-27.311,9.016-24.632
		C553.108,543.224,549.462,555.357,549.375,557.219z M451.816,689.131c-7.931,6.222-16.317,11.928-25.074,17.023
		c3.727-12.363,9.333-24.538,14.128-36.014c1.24-2.967,2.521-5.919,3.816-8.865C444.748,671.486,446.895,681.35,451.816,689.131z
		 M649.676,1018.069c-3.44-13.988-4.849-28.957-8.686-42.895c0.79-0.186,1.582-0.367,2.376-0.542
		c0.378-0.049,0.751-0.131,1.121-0.247c2.375-0.513,4.757-1.008,7.12-1.589c9.851-2.424,19.644-4.983,29.631-6.801
		c8.106-1.475,4.672-13.834-3.408-12.364c-9.987,1.818-19.78,4.377-29.632,6.8c-0.411,0.101-0.823,0.193-1.235,0.29
		c-6.191-18.083,9.43-28.248,27.592-27.889c25.609,0.507,46.248,20.613,71.325,5.27c9.202-5.63,17.634-12.274,27.677-16.465
		c11.428-4.77,25.894-4.877,38.061-3.039c9.939,1.501,20.79,4.564,29.052,10.469c6.103,4.362,7.438,8.226,7.234,13.549
		c-3.054-0.221-6.112-0.356-9.161-0.318c-16.089,0.199-32.613,2.313-47.96,7.22c-15,4.796-29.217,11.688-41.583,21.499
		c-9.138,7.25-16.803,15.741-24.119,24.57c-3.361,1.372-6.644,3.082-9.543,4.292c-8.813,3.68-17.559,7.467-26.306,11.304
		c-12.107,5.313-25.318,9.576-37.486,15.279C651.056,1023.664,650.364,1020.867,649.676,1018.069z M950.025,1025.639
		c0.92,7.774,1.251,15.677,1.085,23.424c-0.645,30.19-24.861,58.252-51.352,70.464c-25.702,11.85-55.497,12.171-83.195,10.024
		c-28.704-2.225-57.305-7.456-85.582-12.749c-15.401-2.883-30.739-6.49-46.299-8.446c-6.666-0.838-14.591-1.86-22.02-1.165
		c1.385-12.789-0.706-26.676-2.19-38.056c-1.137-8.718-2.814-17.322-4.73-25.878c13.061-7.606,26.834-13.7,40.742-19.672
		c4.395-1.887,8.788-3.767,13.142-5.729c0.467,4.098,4.428,7.609,8.941,4.753c13.824-8.747,23.446-20.614,35.497-31.545
		c11.472-10.406,25.554-17.911,40.167-22.887c14.389-4.901,29.328-8.162,44.512-9.118c7.542-0.475,15.111-0.779,22.665-0.99
		c8.156-0.229,14.854,1.952,22.723,3.378c7.502,1.36,10.477-8.958,3.165-11.479c-7.564-2.607-16.229-3.38-24.094-5.152
		c-0.809-0.182-1.631-0.31-2.445-0.473c0.438-3.928,0.457-7.826-1.001-11.719c-3.143-8.395-10.929-14.272-18.688-18.154
		c-19.243-9.628-43.398-12.263-64.299-7.311c-8.013,1.898-16.348,6.132-23.338,10.42c-6.202,3.805-11.798,8.858-18.424,11.958
		c-10.102,4.726-20.349,0.921-30.071-2.784c-17.193-6.551-37.558-10.455-54.934-2.021c-14.744,7.157-19.178,21.869-16.056,36.146
		c-4.114-3.916-9.771-5.543-16.445-4.864c-14.365,1.462-28.676,5.378-42.961,7.739c-10.39-8.264-12.799-29.927-21.68-37.64
		c-18.272-15.87-46.115-13.835-67.359-6.204c-13.34,4.792-23.715,10.385-38.28,8.454c-14.816-1.964-23.063-9.364-34.887-17.512
		c-20.463-14.1-52.61-8.008-73.578,2.52c-10.554,5.299-28.796,18.616-25.676,31.972c-14.906,4.077-29.06,10.584-39.966,20.406
		c-4.008,3.61,1.119,9.851,5.645,7.316c22.491-12.601,45.824-17.58,71.51-17.477c11.407,0.045,22.981,1.268,34.06,4.014
		c9.674,2.397,17.746,7.161,26.821,11.015c32.862,13.956,72.232,15.664,107.24,16.857c30.802,1.05,62.714-5.48,92.787-11.659
		c1.841-0.378,8.763-2.899,10.758-1.703c1.974,1.183,3.174,15.637,3.703,18.367c2.975,15.368,6.772,30.433,10.535,45.62
		c4.758,19.199,7.855,38.34,8.961,58.061c0.412,7.356,0.651,14.777-2.358,20.607c-4.855,9.409-16.799,12.556-26.769,14.244
		c-14.448,2.447-29.378,2.373-44.254,1.458c13.172-7.047,25-16.393,33.959-28.584c6.582-8.957,11.397-19.011,12.468-30.168
		c1.489-15.504-3.563-30.868-4.874-46.205c-0.605-7.08-10.853-7.265-11.153,0c-1.042,25.276,3.813,48.384-14.604,68.879
		c-15.205,16.921-36.335,26.341-58.208,31.332c-21.77,4.967-43.99,5.499-66.159,3.54c-11.127-0.983-22.014-3.265-32.879-5.593
		c0.49-0.058,0.984-0.103,1.474-0.163c20.946-2.577,45.209-8.181,61.018-23.163c2.969-2.813-0.083-8.692-4.167-7.158
		c-17.746,6.668-34.579,11.785-53.536,14.089c-17.809,2.165-35.814,2.41-53.735,2.37c-18.471-0.042-51.585-3.974-71.696-9.466
		c-11.832-3.231,2.784-4.676,22.65-2.863c30.982,2.828,71.169-1.045,86.152-5.701c22.591-7.021,45.861-15.487,66.129-27.867
		c16.413-10.026,40.301-26.681,42.501-47.467c0.581-5.487-6.97-9.779-11.405-6.545c-7.373,5.375-12.53,13.545-19.097,19.932
		c-7.468,7.263-16.004,13.29-24.953,18.585c-19.755,11.69-42.086,19.789-64.005,26.365c-22.518,6.756-46.651,12.068-70.305,10.458
		c-19.89-1.354-39.022-7.787-58.907-9.733c-8.169-10.34-14.224-22.939-19.226-34.446c-7.859-18.083-10.598-36.37-6.733-55.74
		c4.798-24.044,19.153-44.393,35.741-62.079c27.947-29.794,73.001-38.156,112.46-41.576c5.84,11.248,19.561,22.343,31.659,22.143
		c4.518-0.075,7.151-5.827,3.766-9.092c-6.818-6.575-16.757-11.744-21.581-20.12c-0.416-0.603-0.73-1.258-0.996-1.937
		c1.444-0.853,3.093-1.846,3.125-1.867c3.671-2.388,6.659-5.482,9.728-8.492c3.423,5.173,7.976,9.76,13.292,14.05
		c12.269,9.901,26.173,16.834,41.471,20.709c18.867,4.779,37.669,3.972,56.637,6.941c5.91,0.924,8.138-6.822,2.477-8.983
		c-15.245-5.821-29.769-9.259-45.669-12.796c-14.183-3.155-27.468-8.191-39.158-16.963c-5.022-3.768-10.91-8.397-14.215-13.837
		c-3.139-5.165-2.845-11.25-3.058-17.116c-0.132-3.639,0.098-8.418-0.406-12.909c25.84-15.404,49.071-35.576,65.941-60.146
		c2.761-0.802,5.447-1.915,8.117-2.934c9.526-3.635,18.826-7.978,27.897-12.625c22.609-11.581,39.198-28.299,56.591-46.618
		c41.433-43.638,71.592-92.253,79.499-152.744c2.411-18.447,3.755-37.204,3.795-55.813c0.021-9.873-0.441-19.79-1.375-29.618
		c-0.429-4.519-1.337-9.053-2.022-13.593c11.801,10.317,18.253,22.378,21.844,37.918c7.415,32.084,3.418,64.891,1.578,97.325
		c-0.362,6.384,9.268,7.424,10.953,1.482c8.907-31.399,9.942-68.146,2.484-99.965c-2.479-10.579-6.373-21.375-12.453-30.582
		c4.701,1.235,9.392,2.455,13.813,4.128c5.679,2.149,11.097,4.997,16.386,8.174c0.71,0.67,1.533,1.177,2.424,1.488
		c0.068,0.043,0.137,0.083,0.205,0.126c5.17,10.369,10.72,20.124,13.824,31.586c3.712,13.707,4.547,27.846,4.518,41.989
		c-0.027,13.355-1.165,26.657-2.858,39.903c-1.335-4.563-3.362-8.899-6.607-12.877c-3.509-4.3-9.386,1.176-7.25,5.594
		c5.009,10.363,3.477,24.253,4.535,35.505c1.407,14.96-1.584,29.865-3.275,44.695c-1.617,14.175-1.63,28.494-1.362,42.739
		c0.219,11.643-1.378,26.029,0.943,37.922c-3.278,6.111-6.238,12.407-10.852,17.706c-2.631,3.022-18.958,18.85-27.831,23.28
		c-2.638,1.317-5.326,2.569-8.035,3.787c14.988-20.412,26.092-44.807,30.32-69.396c0.757-4.402-5.236-7.708-7.675-3.235
		c-13.942,25.575-22.127,53.968-40.204,77.278c-0.656,0.846-1.005,1.75-1.153,2.651c-7.998,2.634-16.169,4.712-24.424,5.993
		c-13.7,2.125-29.294,0.525-42.733-2.968c-14.961-3.888-27.036-11.789-42.939-6.917c-10.54,3.229-19.209,3.324-30.12,1.043
		c-6.335-1.325-16.962-6.916-22.633-1.621c-6.869,6.413-3.714,21.956,1.091,28.481c8.382,11.382,21.96,11.085,34.423,12.793
		c2.615,0.358,5.314,1.005,7.815,1.82c0.412,0.134,1.071,0.446,1.721,0.709c-1.05,1.079-2.093,2.187-2.903,2.735
		c-2.485,1.683-5.174,3.224-7.9,4.472c-12.556,5.752-32.738-0.353-45.089-5.001c-15.307-5.76-33.413-9.242-48.182,0.558
		c-4.899,3.25-5.215,8.876-1.708,13.256c15.607,19.491,43.025,27.817,66.548,32.873c11.281,2.425,22.008,3.192,33.403,1.582
		c13.425-1.898,23.641-8.817,35.241-15.434c9.153-5.222,19.299-8.51,29.15-12.168c3.328-1.235,7.39-3.524,10.951-4.032
		c3.172-0.452,11.166,1.482,16.769,2.461c-10.09,8.504-20.898,16.465-31.026,24.597c-7.734,6.21-15.354,12.652-22.64,19.385
		c-5.049,4.666-11.379,9.851-13.447,16.642c-2.304,7.565,7.14,11.86,12.459,7.253c5.214-4.516,9.569-10.16,14.749-14.815
		c7.896-7.097,16.186-13.736,24.104-20.807c10.501-9.377,22.25-18.426,29.96-30.156c6.106,0.888,12.217,1.755,18.332,2.6
		c-9.189,10.645-18.75,20.87-29.475,30.102c-14.146,12.176-30.463,21.688-44.391,34.047c-7.297,6.475,2.164,18.612,10.399,13.478
		c16.503-10.288,32.782-23.458,46.978-36.748c12.132-11.359,22.215-24.218,28.897-39.218c20.933,2.706,41.928,4.875,63.04,5.606
		c14.822,0.513,30.587,1.225,45.471-1.243c3.395,3.659,6.597,7.352,9.264,11.74c1.055,1.737,3.755,5.154,4.131,7.525
		c-0.222,0.192-0.592,0.439-1.25,0.69c-1.247,0.474-2.531,0.822-3.824,1.144c-11.96,2.98-25.499,0.104-37.142,4.049
		c-3.655,1.238-4.547,7.588,0,8.339c8.499,1.404,17.602,2.127,26.194,1.708c7.06-0.344,16.291-0.71,22.753-4.728
		c14.27,5.879,28.861,11.54,40.863,21.502c11.855,9.84,21.452,21.712,33.826,31.187c12.638,9.677,26.116,19.351,35.24,32.661
		c8.27,12.063,16.478,29.95,13.327,44.802C933.752,1029.64,945.972,1033.359,950.025,1025.639z M564.065,965.425
		c-14.49,2.259-28.912,4.211-43.675,3.795c-12.757-0.359-26.488,0.233-39.001-1.412c-16.481-2.167-33.563-5.323-49.671-9.388
		c-12.209-3.081-22.714-9.435-34.581-13.217c-13.934-4.44-29.163-5.873-43.718-5.536c-7.889,0.182-16.231,0.906-24.604,2.272
		c4.047-4.585,12.246-8.384,15.961-10.505c10.553-6.027,25.766-9.733,37.746-10.234c17.79-0.745,26.619,12.69,41.609,18.997
		c11.95,5.027,25.963,6.987,38.823,5.244c15.241-2.066,28.069-12.02,43.158-15.16c13.194-2.746,31.597-2.477,41.572,8.209
		c3.069,3.288,3.627,7.397,5.509,11.249c1.842,3.77,4.524,7.201,6.954,10.602C561.378,962.06,562.68,963.779,564.065,965.425z"/>
	<path fill="#2D1715" d="M608.591,225.596c-0.125-1.989-0.595-4.023-1.475-6.022c-1-2.27-2.489-4.379-4.546-5.764
		c-4.872-3.279-11.988-1.518-15.866,2.892c-4.375,4.975-4.987,12.886-1.429,18.475C594.858,250.229,609.432,238.923,608.591,225.596
		z"/>
</g>
</svg>
