<svg width="920" height="732" viewBox="0 0 920 732" fill="none" xmlns="http://www.w3.org/2000/svg">
<path d="M312 716.001L336.43 716H336.431C338.476 716 340.5 716.376 342.389 717.106C344.278 717.836 345.994 718.906 347.44 720.255C348.886 721.604 350.033 723.205 350.815 724.967C351.597 726.73 352 728.619 352 730.527V730.999L312.001 731L312 716.001Z" fill="#2F2E41"/>
<path d="M195 716.001L219.43 716H219.431C221.476 716 223.5 716.376 225.389 717.106C227.278 717.836 228.994 718.906 230.44 720.255C231.886 721.604 233.033 723.205 233.815 724.967C234.597 726.73 235 728.619 235 730.527V730.999L195.001 731L195 716.001Z" fill="#2F2E41"/>
<path d="M919 732H1C0.734784 732 0.480429 731.895 0.292892 731.707C0.105356 731.52 0 731.265 0 731C0 730.735 0.105356 730.48 0.292892 730.293C0.480429 730.105 0.734784 730 1 730H919C919.265 730 919.52 730.105 919.707 730.293C919.895 730.48 920 730.735 920 731C920 731.265 919.895 731.52 919.707 731.707C919.52 731.895 919.265 732 919 732Z" fill="#CCCCCC"/>
<path d="M741.388 172.947H737.389V63.4019C737.389 55.0759 735.749 46.8314 732.563 39.1391C729.376 31.4468 724.706 24.4574 718.819 18.57C712.931 12.6826 705.942 8.01244 698.25 4.82619C690.558 1.63995 682.313 3.93981e-06 673.987 1.54799e-10H441.9C425.085 -3.71302e-05 408.959 6.67975 397.068 18.5699C385.178 30.46 378.498 46.5865 378.498 63.4017V664.376C378.498 681.191 385.178 697.318 397.068 709.208C408.958 721.098 425.085 727.778 441.9 727.778H673.987C690.802 727.778 706.928 721.098 718.819 709.208C730.709 697.318 737.389 681.192 737.389 664.376V250.923H741.388L741.388 172.947Z" fill="#E6E6E6"/>
<path d="M723.894 63.8444V663.934C723.894 676.492 718.905 688.536 710.025 697.416C701.145 706.295 689.102 711.284 676.544 711.284H443.344C430.786 711.284 418.742 706.295 409.863 697.416C400.983 688.536 395.994 676.492 395.994 663.934V63.8444C395.994 51.2865 400.983 39.2429 409.863 30.3631C418.742 21.4833 430.786 16.4946 443.344 16.4944H471.634C470.244 19.9104 469.714 23.6156 470.092 27.2842C470.47 30.9527 471.744 34.4722 473.801 37.5331C475.859 40.5939 478.637 43.1022 481.891 44.8375C485.145 46.5727 488.776 47.4817 492.464 47.4844H625.424C629.112 47.4816 632.743 46.5727 635.997 44.8374C639.251 43.1022 642.029 40.5938 644.086 37.533C646.144 34.4722 647.417 30.9527 647.795 27.2841C648.173 23.6156 647.644 19.9104 646.254 16.4944H676.544C689.102 16.4946 701.145 21.4833 710.025 30.3631C718.905 39.2429 723.894 51.2865 723.894 63.8444Z" fill="white"/>
<path d="M455.775 72.1511C447.288 72.1511 439.149 75.5225 433.147 81.5236C427.146 87.5248 423.775 95.6641 423.775 104.151C423.775 112.638 427.146 120.777 433.147 126.778C439.148 132.78 447.288 136.151 455.775 136.151C464.261 136.151 472.401 132.78 478.402 126.779C484.403 120.777 487.775 112.638 487.775 104.151C487.775 95.6642 484.403 87.5249 478.402 81.5237C472.401 75.5225 464.262 72.1511 455.775 72.1511Z" fill="#E6E6E6"/>
<path d="M688.113 131.151H520.113C517.992 131.151 515.957 130.309 514.456 128.808C512.956 127.308 512.113 125.273 512.113 123.151C512.113 121.03 512.956 118.995 514.456 117.495C515.957 115.994 517.992 115.151 520.113 115.151H688.113C690.235 115.151 692.27 115.994 693.77 117.495C695.27 118.995 696.113 121.03 696.113 123.151C696.113 125.273 695.27 127.308 693.77 128.808C692.27 130.309 690.235 131.151 688.113 131.151Z" fill="#E6E6E6"/>
<path d="M573.113 97.1514H520.113C517.992 97.1514 515.957 96.3085 514.456 94.8082C512.956 93.3079 512.113 91.2731 512.113 89.1514C512.113 87.0296 512.956 84.9948 514.456 83.4945C515.957 81.9942 517.992 81.1514 520.113 81.1514H573.113C575.235 81.1514 577.27 81.9942 578.77 83.4945C580.27 84.9948 581.113 87.0296 581.113 89.1514C581.113 91.2731 580.27 93.3079 578.77 94.8082C577.27 96.3085 575.235 97.1514 573.113 97.1514Z" fill="#E6E6E6"/>
<path d="M455.775 206.151C447.288 206.151 439.149 209.522 433.147 215.524C427.146 221.525 423.775 229.664 423.775 238.151C423.775 246.638 427.146 254.777 433.147 260.778C439.148 266.78 447.288 270.151 455.775 270.151C464.261 270.151 472.401 266.78 478.402 260.779C484.403 254.777 487.775 246.638 487.775 238.151C487.775 229.664 484.403 221.525 478.402 215.524C472.401 209.523 464.262 206.151 455.775 206.151Z" fill="#E6E6E6"/>
<path d="M688.113 265.151H520.113C517.992 265.151 515.957 264.309 514.456 262.808C512.956 261.308 512.113 259.273 512.113 257.151C512.113 255.03 512.956 252.995 514.456 251.495C515.957 249.994 517.992 249.151 520.113 249.151H688.113C690.235 249.151 692.27 249.994 693.77 251.495C695.27 252.995 696.113 255.03 696.113 257.151C696.113 259.273 695.27 261.308 693.77 262.808C692.27 264.309 690.235 265.151 688.113 265.151Z" fill="#E6E6E6"/>
<path d="M573.113 231.151H520.113C517.992 231.151 515.957 230.309 514.456 228.808C512.956 227.308 512.113 225.273 512.113 223.151C512.113 221.03 512.956 218.995 514.456 217.495C515.957 215.994 517.992 215.151 520.113 215.151H573.113C575.235 215.151 577.27 215.994 578.77 217.495C580.27 218.995 581.113 221.03 581.113 223.151C581.113 225.273 580.27 227.308 578.77 228.808C577.27 230.309 575.235 231.151 573.113 231.151Z" fill="#E6E6E6"/>
<path d="M455.775 474.151C447.288 474.151 439.149 477.522 433.147 483.524C427.146 489.525 423.775 497.664 423.775 506.151C423.775 514.638 427.146 522.777 433.147 528.778C439.148 534.78 447.288 538.151 455.775 538.151C464.261 538.151 472.401 534.78 478.402 528.779C484.403 522.777 487.775 514.638 487.775 506.151C487.775 497.664 484.403 489.525 478.402 483.524C472.401 477.523 464.262 474.151 455.775 474.151Z" fill="#E6E6E6"/>
<path d="M688.113 533.151H520.113C517.992 533.151 515.957 532.309 514.456 530.808C512.956 529.308 512.113 527.273 512.113 525.151C512.113 523.03 512.956 520.995 514.456 519.495C515.957 517.994 517.992 517.151 520.113 517.151H688.113C690.235 517.151 692.27 517.994 693.77 519.495C695.27 520.995 696.113 523.03 696.113 525.151C696.113 527.273 695.27 529.308 693.77 530.808C692.27 532.309 690.235 533.151 688.113 533.151Z" fill="#E6E6E6"/>
<path d="M573.113 499.151H520.113C517.992 499.151 515.957 498.309 514.456 496.808C512.956 495.308 512.113 493.273 512.113 491.151C512.113 489.03 512.956 486.995 514.456 485.495C515.957 483.994 517.992 483.151 520.113 483.151H573.113C575.235 483.151 577.27 483.994 578.77 485.495C580.27 486.995 581.113 489.03 581.113 491.151C581.113 493.273 580.27 495.308 578.77 496.808C577.27 498.309 575.235 499.151 573.113 499.151Z" fill="#E6E6E6"/>
<path d="M455.775 608.151C447.288 608.151 439.149 611.522 433.147 617.524C427.146 623.525 423.775 631.664 423.775 640.151C423.775 648.638 427.146 656.777 433.147 662.778C439.148 668.78 447.288 672.151 455.775 672.151C464.261 672.151 472.401 668.78 478.402 662.779C484.403 656.777 487.775 648.638 487.775 640.151C487.775 631.664 484.403 623.525 478.402 617.524C472.401 611.523 464.262 608.151 455.775 608.151Z" fill="#E6E6E6"/>
<path d="M688.113 667.151H520.113C517.992 667.151 515.957 666.309 514.456 664.808C512.956 663.308 512.113 661.273 512.113 659.151C512.113 657.03 512.956 654.995 514.456 653.495C515.957 651.994 517.992 651.151 520.113 651.151H688.113C690.235 651.151 692.27 651.994 693.77 653.495C695.27 654.995 696.113 657.03 696.113 659.151C696.113 661.273 695.27 663.308 693.77 664.808C692.27 666.309 690.235 667.151 688.113 667.151Z" fill="#E6E6E6"/>
<path d="M573.113 633.151H520.113C517.992 633.151 515.957 632.309 514.456 630.808C512.956 629.308 512.113 627.273 512.113 625.151C512.113 623.03 512.956 620.995 514.456 619.495C515.957 617.994 517.992 617.151 520.113 617.151H573.113C575.235 617.151 577.27 617.994 578.77 619.495C580.27 620.995 581.113 623.03 581.113 625.151C581.113 627.273 580.27 629.308 578.77 630.808C577.27 632.309 575.235 633.151 573.113 633.151Z" fill="#E6E6E6"/>
<path d="M752.944 449.151H366.944C362.57 449.146 358.376 447.406 355.282 444.313C352.189 441.22 350.449 437.026 350.444 432.651V308.651C350.449 304.277 352.189 300.083 355.282 296.99C358.376 293.896 362.57 292.156 366.944 292.151H752.944C757.319 292.156 761.513 293.896 764.606 296.99C767.699 300.083 769.439 304.277 769.444 308.651V432.651C769.439 437.026 767.699 441.22 764.606 444.313C761.513 447.406 757.319 449.146 752.944 449.151Z" fill="white"/>
<path d="M414.347 416.377C405.304 416.377 396.463 413.696 388.943 408.671C381.424 403.647 375.563 396.505 372.102 388.15C368.641 379.795 367.736 370.601 369.5 361.731C371.264 352.861 375.619 344.713 382.014 338.318C388.409 331.923 396.557 327.568 405.427 325.804C414.297 324.04 423.491 324.945 431.846 328.406C440.201 331.867 447.343 337.728 452.367 345.247C457.392 352.767 460.074 361.608 460.074 370.651C460.06 382.774 455.238 394.397 446.665 402.969C438.093 411.542 426.471 416.364 414.347 416.377ZM414.347 326.925C405.699 326.925 397.245 329.49 390.055 334.294C382.864 339.099 377.259 345.928 373.95 353.918C370.64 361.908 369.774 370.7 371.462 379.182C373.149 387.664 377.313 395.455 383.428 401.57C389.544 407.686 397.335 411.85 405.817 413.537C414.299 415.224 423.091 414.359 431.081 411.049C439.071 407.739 445.9 402.135 450.704 394.944C455.509 387.754 458.074 379.3 458.074 370.651C458.06 359.059 453.449 347.944 445.252 339.747C437.055 331.549 425.94 326.938 414.347 326.925Z" fill="#3F3D56"/>
<path d="M739.085 408.389H504.273C502.804 408.391 501.348 408.103 499.991 407.541C498.633 406.98 497.399 406.157 496.359 405.118C495.32 404.08 494.495 402.847 493.933 401.489C493.37 400.132 493.081 398.677 493.081 397.208C493.081 395.739 493.37 394.284 493.933 392.926C494.495 391.569 495.32 390.336 496.359 389.298C497.399 388.259 498.633 387.436 499.991 386.874C501.348 386.313 502.804 386.025 504.273 386.026H739.085C740.555 386.025 742.01 386.313 743.368 386.874C744.725 387.436 745.959 388.259 746.999 389.298C748.038 390.336 748.863 391.569 749.425 392.926C749.988 394.284 750.277 395.739 750.277 397.208C750.277 398.677 749.988 400.132 749.425 401.489C748.863 402.847 748.038 404.08 746.999 405.118C745.959 406.157 744.725 406.98 743.368 407.541C742.01 408.103 740.555 408.391 739.085 408.389Z" fill="#333703"/>
<path d="M578.351 360.868H504.273C502.804 360.869 501.348 360.581 499.991 360.02C498.633 359.458 497.399 358.635 496.359 357.597C495.32 356.558 494.495 355.325 493.933 353.968C493.37 352.61 493.081 351.155 493.081 349.686C493.081 348.217 493.37 346.762 493.933 345.405C494.495 344.047 495.32 342.814 496.359 341.776C497.399 340.737 498.633 339.914 499.991 339.353C501.348 338.791 502.804 338.503 504.273 338.505H578.351C579.82 338.503 581.275 338.791 582.633 339.353C583.991 339.914 585.225 340.737 586.264 341.776C587.303 342.814 588.128 344.047 588.691 345.405C589.253 346.762 589.543 348.217 589.543 349.686C589.543 351.155 589.253 352.61 588.691 353.968C588.128 355.325 587.303 356.558 586.264 357.597C585.225 358.635 583.991 359.458 582.633 360.02C581.275 360.581 579.82 360.869 578.351 360.868Z" fill="#333703"/>
<path d="M752.944 449.151H366.944C362.57 449.146 358.376 447.406 355.282 444.313C352.189 441.22 350.449 437.026 350.444 432.651V308.651C350.449 304.277 352.189 300.083 355.282 296.99C358.376 293.896 362.57 292.156 366.944 292.151H752.944C757.319 292.156 761.513 293.896 764.606 296.99C767.699 300.083 769.439 304.277 769.444 308.651V432.651C769.439 437.026 767.699 441.22 764.606 444.313C761.513 447.406 757.319 449.146 752.944 449.151ZM366.944 293.151C362.835 293.156 358.895 294.791 355.989 297.696C353.083 300.602 351.449 304.542 351.444 308.651V432.651C351.449 436.761 353.083 440.701 355.989 443.606C358.895 446.512 362.835 448.147 366.944 448.151H752.944C757.054 448.147 760.993 446.512 763.899 443.606C766.805 440.701 768.439 436.761 768.444 432.651V308.651C768.439 304.542 766.805 300.602 763.899 297.696C760.993 294.791 757.054 293.156 752.944 293.151H366.944Z" fill="#3F3D56"/>
<path d="M413.539 392.904C423.842 392.904 432.193 384.552 432.193 374.249C432.193 363.947 423.842 355.595 413.539 355.595C403.237 355.595 394.885 363.947 394.885 374.249C394.885 384.552 403.237 392.904 413.539 392.904Z" fill="#819219"/>
<path d="M398.979 364.192C401.993 361.177 402.604 356.901 400.343 354.64C398.082 352.379 393.806 352.99 390.791 356.004C387.777 359.019 387.166 363.295 389.427 365.556C391.688 367.817 395.964 367.206 398.979 364.192Z" fill="#819219"/>
<path d="M432.982 358.268C434.238 355.328 432.078 351.586 428.158 349.912C424.237 348.237 420.041 349.263 418.785 352.203C417.529 355.144 419.689 358.885 423.609 360.56C427.53 362.234 431.726 361.208 432.982 358.268Z" fill="#819219"/>
<path d="M414.131 394.534C422.875 394.534 429.963 387.446 429.963 378.703C429.963 369.959 422.875 362.871 414.131 362.871C405.387 362.871 398.299 369.959 398.299 378.703C398.299 387.446 405.387 394.534 414.131 394.534Z" fill="#FFB8B8"/>
<path d="M397.496 368.745C401.113 371.238 405.407 372.565 409.801 372.548C408.234 373.635 406.45 374.369 404.571 374.699C410.413 375.953 416.451 375.986 422.306 374.799C423.608 374.59 424.864 374.159 426.019 373.524C426.595 373.202 427.096 372.763 427.491 372.235C427.886 371.707 428.165 371.102 428.311 370.459C428.7 368.236 426.968 366.217 425.168 364.856C422.412 362.804 419.234 361.39 415.865 360.717C412.495 360.043 409.018 360.127 405.685 360.963C403.465 361.409 401.444 362.551 399.915 364.223C398.502 365.971 398.083 368.666 399.43 370.465L397.496 368.745Z" fill="#819219"/>
<path d="M180.457 511.165C179.994 509.665 179.866 508.081 180.081 506.525C180.296 504.969 180.85 503.48 181.703 502.161C182.557 500.843 183.689 499.728 185.02 498.894C186.351 498.06 187.848 497.529 189.407 497.336L240.74 437.353L252.713 449.924L201.582 507.437C201.731 510.077 200.907 512.68 199.266 514.753C197.624 516.826 195.279 518.225 192.675 518.684C190.071 519.144 187.389 518.632 185.137 517.247C182.886 515.861 181.22 513.697 180.457 511.165Z" fill="#A0616A"/>
<path d="M224.04 446.719C223.988 446.075 224.075 445.426 224.296 444.819C224.517 444.211 224.866 443.658 225.32 443.198L241.179 427.117C243.13 424.443 246.062 422.653 249.331 422.139C252.601 421.624 255.941 422.428 258.619 424.373C261.296 426.318 263.093 429.245 263.615 432.514C264.137 435.782 263.341 439.123 261.402 441.806L250.858 461.861C250.557 462.434 250.136 462.934 249.624 463.329C249.112 463.724 248.521 464.005 247.891 464.151C247.261 464.297 246.607 464.305 245.973 464.176C245.34 464.046 244.742 463.781 244.219 463.4L225.87 449.989C225.348 449.608 224.914 449.119 224.598 448.554C224.282 447.99 224.092 447.364 224.04 446.719Z" fill="#333703"/>
<path d="M261.278 409.915C274.843 409.915 285.839 398.918 285.839 385.354C285.839 371.789 274.843 360.792 261.278 360.792C247.713 360.792 236.717 371.789 236.717 385.354C236.717 398.918 247.713 409.915 261.278 409.915Z" fill="#A0616A"/>
<path d="M247.923 495.262C247.435 494.899 247.026 494.439 246.722 493.912C246.419 493.385 246.226 492.802 246.157 492.197C244.459 478.003 241.988 463.912 238.755 449.987C237.323 443.73 238.212 437.165 241.257 431.514C244.301 425.863 249.293 421.509 255.306 419.262C261.319 417.015 267.943 417.028 273.948 419.297C279.952 421.567 284.928 425.939 287.951 431.601C297.611 449.729 298.348 474.618 298.217 484.477C298.202 485.53 297.819 486.543 297.133 487.342C296.447 488.14 295.502 488.672 294.464 488.845L251.369 496.098C251.118 496.141 250.864 496.162 250.609 496.162C249.64 496.162 248.697 495.846 247.923 495.262Z" fill="#819219"/>
<path d="M340.963 415.29C340.84 415.83 340.76 416.378 340.723 416.931L297.766 441.713L287.325 435.702L276.193 450.274L293.644 462.711C295.053 463.716 296.751 464.237 298.482 464.195C300.212 464.152 301.883 463.55 303.242 462.478L347.538 427.532C349.537 428.272 351.715 428.386 353.78 427.858C355.845 427.331 357.701 426.187 359.101 424.579C360.5 422.971 361.377 420.975 361.614 418.857C361.852 416.738 361.439 414.598 360.43 412.72C359.421 410.842 357.864 409.316 355.967 408.344C354.07 407.373 351.922 407.002 349.808 407.281C347.695 407.56 345.717 408.476 344.137 409.906C342.557 411.337 341.449 413.215 340.963 415.29Z" fill="#A0616A"/>
<path d="M296.33 442.887L282.446 460.881C282.051 461.393 281.55 461.813 280.978 462.114C280.405 462.415 279.775 462.589 279.129 462.625C278.484 462.66 277.838 462.556 277.236 462.319C276.634 462.083 276.091 461.719 275.642 461.253L259.925 444.932C257.317 442.896 255.623 439.909 255.214 436.626C254.806 433.343 255.715 430.032 257.744 427.418C259.773 424.805 262.755 423.103 266.037 422.684C269.318 422.266 272.632 423.167 275.251 425.188L294.964 436.211C295.529 436.526 296.018 436.96 296.4 437.482C296.781 438.004 297.046 438.602 297.176 439.236C297.305 439.869 297.297 440.524 297.151 441.153C297.005 441.783 296.725 442.375 296.33 442.887Z" fill="#333703"/>
<path d="M317.974 716.442L330.234 716.441L333.12 669.306L317.972 669.154L317.974 716.442Z" fill="#A0616A"/>
<path d="M200.974 716.442L213.234 716.441L219.066 669.153L200.972 669.154L200.974 716.442Z" fill="#A0616A"/>
<path d="M214.336 691.883L199.121 689.898C198.485 689.815 197.875 689.597 197.33 689.259C196.785 688.921 196.319 688.47 195.963 687.937C195.606 687.404 195.368 686.801 195.264 686.169C195.16 685.536 195.192 684.888 195.358 684.269L217.552 575.208C219.758 564.62 221.285 553.902 222.122 543.119C222.77 534.345 225.338 521.939 233.894 512.663C237.374 508.856 240.621 504.844 243.619 500.647L250.337 491.345L295.089 484.225L295.12 484.779C297.053 520.34 306.29 555.122 322.255 586.957C329.436 601.275 333.558 616.931 334.358 632.928L336.894 682.381C336.926 683.007 336.826 683.633 336.602 684.219C336.378 684.805 336.033 685.338 335.591 685.783C335.151 686.231 334.62 686.58 334.035 686.808C333.45 687.036 332.823 687.137 332.196 687.105L317.651 686.444C316.665 686.398 315.721 686.029 314.965 685.395C314.209 684.761 313.682 683.896 313.464 682.933L301.321 628.754C301.211 628.27 301.002 627.816 300.705 627.419L262.595 576.605C262.323 576.243 261.958 575.961 261.538 575.79C261.119 575.619 260.66 575.565 260.213 575.634C259.765 575.704 259.344 575.893 258.996 576.183C258.648 576.473 258.385 576.851 258.235 577.279L219.165 688.906C218.854 689.786 218.278 690.548 217.517 691.087C216.755 691.627 215.845 691.917 214.912 691.92C214.72 691.92 214.527 691.907 214.336 691.883Z" fill="#819219"/>
<path d="M234.12 368.306C236.071 362.392 237.512 356.321 238.425 350.161C238.712 346.575 237.793 342.716 235.182 340.241C230.294 335.61 221.989 337.816 216.877 342.198C209.489 348.533 205.805 358.267 204.412 367.898C203.02 377.53 203.632 387.324 203.297 397.049C202.962 406.775 201.571 416.775 196.613 425.149C191.654 433.523 182.453 439.95 172.748 439.237C168.83 439.026 165.111 437.449 162.234 434.782C160.822 433.438 159.753 431.776 159.116 429.934C158.479 428.092 158.292 426.124 158.573 424.196C153.612 433.078 156.127 445.117 163.526 452.099C170.925 459.082 182.306 461.056 192.033 458.075C201.76 455.094 209.766 447.618 214.548 438.638C219.329 429.658 221.082 419.285 220.828 409.115C220.633 401.304 219.305 393.43 220.625 385.73C221.945 378.03 226.764 370.211 234.363 368.398L234.12 368.306Z" fill="#819219"/>
<path d="M268.247 378.43C269.542 382.758 274.498 385.427 278.957 384.695C283.415 383.963 287.081 380.292 288.435 375.982C289.66 371.58 289.159 366.876 287.034 362.831C285.862 360.407 284.225 358.237 282.214 356.446C280.203 354.655 277.859 353.278 275.316 352.394C272.758 351.547 270.035 351.326 267.374 351.751C264.713 352.176 262.193 353.235 260.027 354.837C259.797 353.865 259.311 352.972 258.62 352.249C257.93 351.527 257.059 351.002 256.098 350.728C254.163 350.207 252.12 350.237 250.201 350.815C244.672 352.391 239.881 355.877 236.679 360.652C233.518 365.414 231.428 370.803 230.55 376.45C229.042 384.919 229.598 394.173 234.354 401.34C239.111 408.508 248.841 412.74 256.735 409.323C257.228 406.806 256.062 404.272 254.712 402.092C253.363 399.911 251.764 397.787 251.246 395.276C250.728 392.765 251.721 389.693 254.151 388.872C256.223 388.171 258.432 389.306 260.615 389.443C261.855 389.521 263.094 389.272 264.207 388.72C265.32 388.168 266.268 387.333 266.956 386.299C267.645 385.265 268.049 384.068 268.129 382.828C268.209 381.589 267.961 380.35 267.411 379.236L268.247 378.43Z" fill="#819219"/>
</svg>
